<svg width="330" height="57" viewBox="0 0 330 57" fill="none" xmlns="http://www.w3.org/2000/svg">
<line y1="16.326" x2="330" y2="16.326" stroke="#B19A89" stroke-opacity="0.55" stroke-width="1.2561" stroke-dasharray="2.51 2.51"/>
<line x1="2.50891" y1="2.7453e-08" x2="2.50891" y2="24.4458" stroke="#B19A89" stroke-opacity="0.55" stroke-width="1.2561"/>
<line x1="77.7267" y1="3" x2="77.7267" y2="27.4458" stroke="#B19A89" stroke-opacity="0.55" stroke-width="1.2561"/>
<line x1="158.586" y1="3" x2="158.586" y2="27.4458" stroke="#B19A89" stroke-opacity="0.55" stroke-width="1.2561"/>
<line x1="240.385" y1="3" x2="240.385" y2="27.4458" stroke="#B19A89" stroke-opacity="0.55" stroke-width="1.2561"/>
<line x1="319.364" y1="3" x2="319.364" y2="27.4458" stroke="#B19A89" stroke-opacity="0.55" stroke-width="1.2561"/>
<line y1="2.32605" x2="330" y2="2.32605" stroke="#B19A89" stroke-opacity="0.55" stroke-width="1.2561" stroke-dasharray="2.51 2.51"/>
<path d="M73.7726 52.1992C74.0734 51.9413 74.0949 51.4472 74.0949 51.0819V39.5009C74.0949 39.1572 74.0949 38.5985 73.7726 38.3837C73.5362 38.2333 72.5479 38.0829 72.5479 37.825C72.5479 37.7391 72.5908 37.6746 72.6768 37.6746H77.2963C77.3822 37.6746 77.4252 37.7391 77.4252 37.825C77.4252 38.0614 76.4583 38.1903 76.222 38.3837C75.8997 38.6415 75.8782 39.1357 75.8782 39.5009V51.0819C75.8782 51.4257 75.8782 51.9843 76.222 52.1992C76.4583 52.3711 77.4252 52.4785 77.4252 52.7578C77.4252 52.8437 77.3822 52.9082 77.2963 52.9082H72.6768C72.5908 52.9082 72.5264 52.8437 72.5264 52.7578C72.5264 52.5429 73.5147 52.414 73.7726 52.1992ZM78.9762 52.1992C79.277 51.9413 79.2985 51.4472 79.2985 51.0819V39.5009C79.2985 39.1572 79.2985 38.5985 78.9762 38.3837C78.7399 38.2333 77.7515 38.0829 77.7515 37.825C77.7515 37.7391 77.7945 37.6746 77.8804 37.6746H82.4999C82.5858 37.6746 82.6288 37.7391 82.6288 37.825C82.6288 38.0614 81.662 38.1903 81.4256 38.3837C81.1033 38.6415 81.0818 39.1357 81.0818 39.5009V51.0819C81.0818 51.4257 81.0818 51.9843 81.4256 52.1992C81.662 52.3711 82.6288 52.4785 82.6288 52.7578C82.6288 52.8437 82.5858 52.9082 82.4999 52.9082H77.8804C77.7945 52.9082 77.73 52.8437 77.73 52.7578C77.73 52.5429 78.7184 52.414 78.9762 52.1992ZM83.9005 51.8554C83.9005 51.2753 84.3947 50.6951 85.0178 50.6951C85.6194 50.6951 86.1136 51.2753 86.1136 51.8554C86.1136 52.4785 85.6409 53.0371 85.0178 53.0371C84.3947 53.0371 83.9005 52.4785 83.9005 51.8554Z" fill="#B19A89"/>
<path d="M150.871 52.1992C151.172 51.9413 151.193 51.4472 151.193 51.0819V39.5009C151.193 39.1572 151.193 38.5985 150.871 38.3837C150.635 38.2333 149.646 38.0829 149.646 37.825C149.646 37.7391 149.689 37.6746 149.775 37.6746H154.395C154.481 37.6746 154.524 37.7391 154.524 37.825C154.524 38.0614 153.557 38.1903 153.321 38.3837C152.998 38.6415 152.977 39.1357 152.977 39.5009V51.0819C152.977 51.4257 152.977 51.9843 153.321 52.1992C153.557 52.3711 154.524 52.4785 154.524 52.7578C154.524 52.8437 154.481 52.9082 154.395 52.9082H149.775C149.689 52.9082 149.625 52.8437 149.625 52.7578C149.625 52.5429 150.613 52.414 150.871 52.1992ZM156.075 52.1992C156.376 51.9413 156.397 51.4472 156.397 51.0819V39.5009C156.397 39.1572 156.397 38.5985 156.075 38.3837C155.838 38.2333 154.85 38.0829 154.85 37.825C154.85 37.7391 154.893 37.6746 154.979 37.6746H159.599C159.684 37.6746 159.727 37.7391 159.727 37.825C159.727 38.0614 158.761 38.1903 158.524 38.3837C158.202 38.6415 158.18 39.1357 158.18 39.5009V51.0819C158.18 51.4257 158.18 51.9843 158.524 52.1992C158.761 52.3711 159.727 52.4785 159.727 52.7578C159.727 52.8437 159.684 52.9082 159.599 52.9082H154.979C154.893 52.9082 154.829 52.8437 154.829 52.7578C154.829 52.5429 155.817 52.414 156.075 52.1992ZM161.278 52.1992C161.579 51.9413 161.601 51.4472 161.601 51.0819V39.5009C161.601 39.1572 161.601 38.5985 161.278 38.3837C161.042 38.2333 160.054 38.0829 160.054 37.825C160.054 37.7391 160.097 37.6746 160.183 37.6746H164.802C164.888 37.6746 164.931 37.7391 164.931 37.825C164.931 38.0614 163.964 38.1903 163.728 38.3837C163.406 38.6415 163.384 39.1357 163.384 39.5009V51.0819C163.384 51.4257 163.384 51.9843 163.728 52.1992C163.964 52.3711 164.931 52.4785 164.931 52.7578C164.931 52.8437 164.888 52.9082 164.802 52.9082H160.183C160.097 52.9082 160.032 52.8437 160.032 52.7578C160.032 52.5429 161.021 52.414 161.278 52.1992ZM166.203 51.8554C166.203 51.2753 166.697 50.6951 167.32 50.6951C167.922 50.6951 168.416 51.2753 168.416 51.8554C168.416 52.4785 167.943 53.0371 167.32 53.0371C166.697 53.0371 166.203 52.4785 166.203 51.8554Z" fill="#B19A89"/>
<path d="M233.61 52.1992C233.911 51.9413 233.933 51.4472 233.933 51.0819V39.5009C233.933 39.1572 233.933 38.5985 233.61 38.3837C233.374 38.2333 232.386 38.0829 232.386 37.825C232.386 37.7391 232.429 37.6746 232.515 37.6746H237.134C237.22 37.6746 237.263 37.7391 237.263 37.825C237.263 38.0614 236.296 38.1903 236.06 38.3837C235.738 38.6415 235.716 39.1357 235.716 39.5009V51.0819C235.716 51.4257 235.716 51.9843 236.06 52.1992C236.296 52.3711 237.263 52.4785 237.263 52.7578C237.263 52.8437 237.22 52.9082 237.134 52.9082H232.515C232.429 52.9082 232.364 52.8437 232.364 52.7578C232.364 52.5429 233.353 52.414 233.61 52.1992ZM236.472 37.825C236.472 37.7391 236.537 37.6746 236.623 37.6746H241.435C241.543 37.6746 241.586 37.7391 241.586 37.825C241.586 38.2762 240.103 37.8036 240.103 38.8779C240.103 39.1142 240.168 39.3505 240.232 39.5654L243.305 49.9002L245.84 40.0811C245.926 39.7803 245.947 39.5009 245.947 39.2001C245.947 38.0614 245.238 38.1688 244.4 38.0184C244.315 37.9969 244.229 37.9325 244.229 37.825C244.229 37.7391 244.272 37.6746 244.379 37.6746H248.311C248.418 37.6746 248.461 37.7391 248.461 37.825C248.461 37.9325 248.375 37.9969 248.289 38.0184C247.258 38.2762 246.85 38.3622 246.571 39.4795L243.133 52.5429C243.09 52.7578 242.896 52.9082 242.682 52.9082C242.467 52.9082 242.273 52.7578 242.209 52.5644L238.255 39.4795C238.062 38.8564 237.697 38.2548 237.031 38.1044C236.859 38.0829 236.472 38.0614 236.472 37.825ZM248.921 51.8554C248.921 51.2753 249.415 50.6951 250.038 50.6951C250.64 50.6951 251.134 51.2753 251.134 51.8554C251.134 52.4785 250.661 53.0371 250.038 53.0371C249.415 53.0371 248.921 52.4785 248.921 51.8554Z" fill="#B19A89"/>
<path d="M314.008 37.825C314.008 37.7391 314.072 37.6746 314.158 37.6746H318.971C319.078 37.6746 319.121 37.7391 319.121 37.825C319.121 38.2762 317.639 37.8036 317.639 38.8779C317.639 39.1142 317.703 39.3505 317.768 39.5654L320.84 49.9002L323.376 40.0811C323.462 39.7803 323.483 39.5009 323.483 39.2001C323.483 38.0614 322.774 38.1688 321.936 38.0184C321.85 37.9969 321.764 37.9325 321.764 37.825C321.764 37.7391 321.807 37.6746 321.915 37.6746H325.847C325.954 37.6746 325.997 37.7391 325.997 37.825C325.997 37.9325 325.911 37.9969 325.825 38.0184C324.794 38.2762 324.385 38.3622 324.106 39.4795L320.668 52.5429C320.625 52.7578 320.432 52.9082 320.217 52.9082C320.002 52.9082 319.809 52.7578 319.744 52.5644L315.791 39.4795C315.598 38.8564 315.232 38.2548 314.566 38.1044C314.394 38.0829 314.008 38.0614 314.008 37.825ZM326.457 51.8554C326.457 51.2753 326.951 50.6951 327.574 50.6951C328.176 50.6951 328.67 51.2753 328.67 51.8554C328.67 52.4785 328.197 53.0371 327.574 53.0371C326.951 53.0371 326.457 52.4785 326.457 51.8554Z" fill="#B19A89"/>
<path d="M1.3751 52.1992C1.67591 51.9413 1.69739 51.4472 1.69739 51.0819V39.5009C1.69739 39.1572 1.69739 38.5985 1.3751 38.3837C1.13876 38.2333 0.150402 38.0829 0.150402 37.825C0.150402 37.7391 0.193374 37.6746 0.279318 37.6746H4.89881C4.98475 37.6746 5.02772 37.7391 5.02772 37.825C5.02772 38.0614 4.06085 38.1903 3.82451 38.3837C3.50222 38.6415 3.48073 39.1357 3.48073 39.5009V51.0819C3.48073 51.4257 3.48073 51.9843 3.82451 52.1992C4.06085 52.3711 5.02772 52.4785 5.02772 52.7578C5.02772 52.8437 4.98475 52.9082 4.89881 52.9082H0.279318C0.193374 52.9082 0.128916 52.8437 0.128916 52.7578C0.128916 52.5429 1.11727 52.414 1.3751 52.1992ZM6.29942 51.8554C6.29942 51.2753 6.7936 50.6951 7.4167 50.6951C8.0183 50.6951 8.51248 51.2753 8.51248 51.8554C8.51248 52.4785 8.03979 53.0371 7.4167 53.0371C6.7936 53.0371 6.29942 52.4785 6.29942 51.8554Z" fill="#B19A89"/>
</svg>
