<svg width="803" height="60" viewBox="0 0 803 60" fill="none" xmlns="http://www.w3.org/2000/svg">
<line x1="2.66798" y1="1.33594" x2="2.66798" y2="27.3359" stroke="#B19A89" stroke-opacity="0.55" stroke-width="1.33596"/>
<line x1="82.668" y1="1.33594" x2="82.668" y2="27.3359" stroke="#B19A89" stroke-opacity="0.55" stroke-width="1.33596"/>
<line x1="168.668" y1="1.33594" x2="168.668" y2="27.3359" stroke="#B19A89" stroke-opacity="0.55" stroke-width="1.33596"/>
<line x1="255.668" y1="1.33594" x2="255.668" y2="27.3359" stroke="#B19A89" stroke-opacity="0.55" stroke-width="1.33596"/>
<line x1="339.668" y1="1.33594" x2="339.668" y2="27.3359" stroke="#B19A89" stroke-opacity="0.55" stroke-width="1.33596"/>
<line x1="425.668" y1="1.33594" x2="425.668" y2="27.3359" stroke="#B19A89" stroke-opacity="0.55" stroke-width="1.33596"/>
<line x1="516.668" y1="1.33594" x2="516.668" y2="27.3359" stroke="#B19A89" stroke-opacity="0.55" stroke-width="1.33596"/>
<line x1="612.668" y1="1.33594" x2="612.668" y2="27.3359" stroke="#B19A89" stroke-opacity="0.55" stroke-width="1.33596"/>
<line x1="705.668" y1="1.33594" x2="705.668" y2="27.3359" stroke="#B19A89" stroke-opacity="0.55" stroke-width="1.33596"/>
<line x1="790.668" y1="1.33594" x2="790.668" y2="27.3359" stroke="#B19A89" stroke-opacity="0.55" stroke-width="1.33596"/>
<line x1="5.83968e-08" y1="0.667956" x2="803" y2="0.668027" stroke="#B19A89" stroke-opacity="0.55" stroke-width="1.33596" stroke-dasharray="2.67 2.67"/>
<path d="M78.4625 54.5818C78.7825 54.3076 78.8053 53.782 78.8053 53.3935V41.0763C78.8053 40.7107 78.8053 40.1165 78.4625 39.888C78.2112 39.728 77.16 39.5681 77.16 39.2938C77.16 39.2024 77.2057 39.1339 77.2971 39.1339H82.2103C82.3017 39.1339 82.3474 39.2024 82.3474 39.2938C82.3474 39.5452 81.319 39.6823 81.0677 39.888C80.7249 40.1622 80.702 40.6878 80.702 41.0763V53.3935C80.702 53.7592 80.702 54.3533 81.0677 54.5818C81.319 54.7646 82.3474 54.8789 82.3474 55.176C82.3474 55.2674 82.3017 55.3359 82.2103 55.3359H77.2971C77.2057 55.3359 77.1371 55.2674 77.1371 55.176C77.1371 54.9475 78.1883 54.8103 78.4625 54.5818ZM83.997 54.5818C84.3169 54.3076 84.3398 53.782 84.3398 53.3935V41.0763C84.3398 40.7107 84.3398 40.1165 83.997 39.888C83.7456 39.728 82.6944 39.5681 82.6944 39.2938C82.6944 39.2024 82.7401 39.1339 82.8315 39.1339H87.7447C87.8361 39.1339 87.8818 39.2024 87.8818 39.2938C87.8818 39.5452 86.8535 39.6823 86.6021 39.888C86.2593 40.1622 86.2365 40.6878 86.2365 41.0763V53.3935C86.2365 53.7592 86.2365 54.3533 86.6021 54.5818C86.8535 54.7646 87.8818 54.8789 87.8818 55.176C87.8818 55.2674 87.8361 55.3359 87.7447 55.3359H82.8315C82.7401 55.3359 82.6716 55.2674 82.6716 55.176C82.6716 54.9475 83.7228 54.8103 83.997 54.5818ZM89.2344 54.2162C89.2344 53.5992 89.76 52.9822 90.4227 52.9822C91.0625 52.9822 91.5881 53.5992 91.5881 54.2162C91.5881 54.8789 91.0854 55.473 90.4227 55.473C89.76 55.473 89.2344 54.8789 89.2344 54.2162Z" fill="#B19A89"/>
<path d="M160.463 54.5818C160.782 54.3076 160.805 53.782 160.805 53.3935V41.0763C160.805 40.7107 160.805 40.1165 160.463 39.888C160.211 39.728 159.16 39.5681 159.16 39.2938C159.16 39.2024 159.206 39.1339 159.297 39.1339H164.21C164.302 39.1339 164.347 39.2024 164.347 39.2938C164.347 39.5452 163.319 39.6823 163.068 39.888C162.725 40.1622 162.702 40.6878 162.702 41.0763V53.3935C162.702 53.7592 162.702 54.3533 163.068 54.5818C163.319 54.7646 164.347 54.8789 164.347 55.176C164.347 55.2674 164.302 55.3359 164.21 55.3359H159.297C159.206 55.3359 159.137 55.2674 159.137 55.176C159.137 54.9475 160.188 54.8103 160.463 54.5818ZM165.997 54.5818C166.317 54.3076 166.34 53.782 166.34 53.3935V41.0763C166.34 40.7107 166.34 40.1165 165.997 39.888C165.746 39.728 164.694 39.5681 164.694 39.2938C164.694 39.2024 164.74 39.1339 164.832 39.1339H169.745C169.836 39.1339 169.882 39.2024 169.882 39.2938C169.882 39.5452 168.853 39.6823 168.602 39.888C168.259 40.1622 168.236 40.6878 168.236 41.0763V53.3935C168.236 53.7592 168.236 54.3533 168.602 54.5818C168.853 54.7646 169.882 54.8789 169.882 55.176C169.882 55.2674 169.836 55.3359 169.745 55.3359H164.832C164.74 55.3359 164.672 55.2674 164.672 55.176C164.672 54.9475 165.723 54.8103 165.997 54.5818ZM171.531 54.5818C171.851 54.3076 171.874 53.782 171.874 53.3935V41.0763C171.874 40.7107 171.874 40.1165 171.531 39.888C171.28 39.728 170.229 39.5681 170.229 39.2938C170.229 39.2024 170.275 39.1339 170.366 39.1339H175.279C175.371 39.1339 175.416 39.2024 175.416 39.2938C175.416 39.5452 174.388 39.6823 174.137 39.888C173.794 40.1622 173.771 40.6878 173.771 41.0763V53.3935C173.771 53.7592 173.771 54.3533 174.137 54.5818C174.388 54.7646 175.416 54.8789 175.416 55.176C175.416 55.2674 175.371 55.3359 175.279 55.3359H170.366C170.275 55.3359 170.206 55.2674 170.206 55.176C170.206 54.9475 171.257 54.8103 171.531 54.5818ZM176.769 54.2162C176.769 53.5992 177.294 52.9822 177.957 52.9822C178.597 52.9822 179.123 53.5992 179.123 54.2162C179.123 54.8789 178.62 55.473 177.957 55.473C177.294 55.473 176.769 54.8789 176.769 54.2162Z" fill="#B19A89"/>
<path d="M248.463 54.5818C248.782 54.3076 248.805 53.782 248.805 53.3935V41.0763C248.805 40.7107 248.805 40.1165 248.463 39.888C248.211 39.728 247.16 39.5681 247.16 39.2938C247.16 39.2024 247.206 39.1339 247.297 39.1339H252.21C252.302 39.1339 252.347 39.2024 252.347 39.2938C252.347 39.5452 251.319 39.6823 251.068 39.888C250.725 40.1622 250.702 40.6878 250.702 41.0763V53.3935C250.702 53.7592 250.702 54.3533 251.068 54.5818C251.319 54.7646 252.347 54.8789 252.347 55.176C252.347 55.2674 252.302 55.3359 252.21 55.3359H247.297C247.206 55.3359 247.137 55.2674 247.137 55.176C247.137 54.9475 248.188 54.8103 248.463 54.5818ZM251.506 39.2938C251.506 39.2024 251.575 39.1339 251.666 39.1339H256.785C256.899 39.1339 256.945 39.2024 256.945 39.2938C256.945 39.7737 255.368 39.271 255.368 40.4136C255.368 40.665 255.437 40.9163 255.505 41.1449L258.773 52.1367L261.47 41.6933C261.561 41.3734 261.584 41.0763 261.584 40.7564C261.584 39.5452 260.83 39.6595 259.939 39.4995C259.847 39.4767 259.756 39.4081 259.756 39.2938C259.756 39.2024 259.801 39.1339 259.916 39.1339H264.098C264.212 39.1339 264.258 39.2024 264.258 39.2938C264.258 39.4081 264.166 39.4767 264.075 39.4995C262.978 39.7737 262.544 39.8651 262.247 41.0534L258.59 54.9475C258.545 55.176 258.339 55.3359 258.11 55.3359C257.882 55.3359 257.676 55.176 257.608 54.9703L253.403 41.0534C253.197 40.3907 252.809 39.7509 252.1 39.5909C251.917 39.5681 251.506 39.5452 251.506 39.2938ZM264.747 54.2162C264.747 53.5992 265.272 52.9822 265.935 52.9822C266.575 52.9822 267.1 53.5992 267.1 54.2162C267.1 54.8789 266.598 55.473 265.935 55.473C265.272 55.473 264.747 54.8789 264.747 54.2162Z" fill="#B19A89"/>
<path d="M333.972 39.2938C333.972 39.2024 334.04 39.1339 334.132 39.1339H339.25C339.365 39.1339 339.41 39.2024 339.41 39.2938C339.41 39.7737 337.834 39.271 337.834 40.4136C337.834 40.665 337.902 40.9163 337.971 41.1449L341.239 52.1367L343.935 41.6933C344.027 41.3734 344.049 41.0763 344.049 40.7564C344.049 39.5452 343.295 39.6595 342.404 39.4995C342.313 39.4767 342.221 39.4081 342.221 39.2938C342.221 39.2024 342.267 39.1339 342.381 39.1339H346.563C346.677 39.1339 346.723 39.2024 346.723 39.2938C346.723 39.4081 346.632 39.4767 346.54 39.4995C345.443 39.7737 345.009 39.8651 344.712 41.0534L341.056 54.9475C341.01 55.176 340.804 55.3359 340.576 55.3359C340.347 55.3359 340.142 55.176 340.073 54.9703L335.868 41.0534C335.663 40.3907 335.274 39.7509 334.566 39.5909C334.383 39.5681 333.972 39.5452 333.972 39.2938ZM347.212 54.2162C347.212 53.5992 347.738 52.9822 348.4 52.9822C349.04 52.9822 349.566 53.5992 349.566 54.2162C349.566 54.8789 349.063 55.473 348.4 55.473C347.738 55.473 347.212 54.8789 347.212 54.2162Z" fill="#B19A89"/>
<path d="M415.972 39.2938C415.972 39.2024 416.04 39.1339 416.132 39.1339H421.25C421.365 39.1339 421.41 39.2024 421.41 39.2938C421.41 39.7737 419.834 39.271 419.834 40.4136C419.834 40.665 419.902 40.9163 419.971 41.1449L423.239 52.1367L425.935 41.6933C426.027 41.3734 426.049 41.0763 426.049 40.7564C426.049 39.5452 425.295 39.6595 424.404 39.4995C424.313 39.4767 424.221 39.4081 424.221 39.2938C424.221 39.2024 424.267 39.1339 424.381 39.1339H428.563C428.677 39.1339 428.723 39.2024 428.723 39.2938C428.723 39.4081 428.632 39.4767 428.54 39.4995C427.443 39.7737 427.009 39.8651 426.712 41.0534L423.056 54.9475C423.01 55.176 422.804 55.3359 422.576 55.3359C422.347 55.3359 422.142 55.176 422.073 54.9703L417.868 41.0534C417.663 40.3907 417.274 39.7509 416.566 39.5909C416.383 39.5681 415.972 39.5452 415.972 39.2938ZM429.509 54.5818C429.829 54.3076 429.852 53.782 429.852 53.3935V41.0763C429.852 40.7107 429.852 40.1165 429.509 39.888C429.258 39.728 428.207 39.5681 428.207 39.2938C428.207 39.2024 428.252 39.1339 428.344 39.1339H433.257C433.348 39.1339 433.394 39.2024 433.394 39.2938C433.394 39.5452 432.366 39.6823 432.114 39.888C431.771 40.1622 431.749 40.6878 431.749 41.0763V53.3935C431.749 53.7592 431.749 54.3533 432.114 54.5818C432.366 54.7646 433.394 54.8789 433.394 55.176C433.394 55.2674 433.348 55.3359 433.257 55.3359H428.344C428.252 55.3359 428.184 55.2674 428.184 55.176C428.184 54.9475 429.235 54.8103 429.509 54.5818ZM434.747 54.2162C434.747 53.5992 435.272 52.9822 435.935 52.9822C436.575 52.9822 437.1 53.5992 437.1 54.2162C437.1 54.8789 436.598 55.473 435.935 55.473C435.272 55.473 434.747 54.8789 434.747 54.2162Z" fill="#B19A89"/>
<path d="M503.972 39.2938C503.972 39.2024 504.04 39.1339 504.132 39.1339H509.25C509.365 39.1339 509.41 39.2024 509.41 39.2938C509.41 39.7737 507.834 39.271 507.834 40.4136C507.834 40.665 507.902 40.9163 507.971 41.1449L511.239 52.1367L513.935 41.6933C514.027 41.3734 514.049 41.0763 514.049 40.7564C514.049 39.5452 513.295 39.6595 512.404 39.4995C512.313 39.4767 512.221 39.4081 512.221 39.2938C512.221 39.2024 512.267 39.1339 512.381 39.1339H516.563C516.677 39.1339 516.723 39.2024 516.723 39.2938C516.723 39.4081 516.632 39.4767 516.54 39.4995C515.443 39.7737 515.009 39.8651 514.712 41.0534L511.056 54.9475C511.01 55.176 510.804 55.3359 510.576 55.3359C510.347 55.3359 510.142 55.176 510.073 54.9703L505.868 41.0534C505.663 40.3907 505.274 39.7509 504.566 39.5909C504.383 39.5681 503.972 39.5452 503.972 39.2938ZM517.509 54.5818C517.829 54.3076 517.852 53.782 517.852 53.3935V41.0763C517.852 40.7107 517.852 40.1165 517.509 39.888C517.258 39.728 516.207 39.5681 516.207 39.2938C516.207 39.2024 516.252 39.1339 516.344 39.1339H521.257C521.348 39.1339 521.394 39.2024 521.394 39.2938C521.394 39.5452 520.366 39.6823 520.114 39.888C519.771 40.1622 519.749 40.6878 519.749 41.0763V53.3935C519.749 53.7592 519.749 54.3533 520.114 54.5818C520.366 54.7646 521.394 54.8789 521.394 55.176C521.394 55.2674 521.348 55.3359 521.257 55.3359H516.344C516.252 55.3359 516.184 55.2674 516.184 55.176C516.184 54.9475 517.235 54.8103 517.509 54.5818ZM523.044 54.5818C523.364 54.3076 523.386 53.782 523.386 53.3935V41.0763C523.386 40.7107 523.386 40.1165 523.044 39.888C522.792 39.728 521.741 39.5681 521.741 39.2938C521.741 39.2024 521.787 39.1339 521.878 39.1339H526.791C526.883 39.1339 526.928 39.2024 526.928 39.2938C526.928 39.5452 525.9 39.6823 525.649 39.888C525.306 40.1622 525.283 40.6878 525.283 41.0763V53.3935C525.283 53.7592 525.283 54.3533 525.649 54.5818C525.9 54.7646 526.928 54.8789 526.928 55.176C526.928 55.2674 526.883 55.3359 526.791 55.3359H521.878C521.787 55.3359 521.718 55.2674 521.718 55.176C521.718 54.9475 522.769 54.8103 523.044 54.5818ZM528.281 54.2162C528.281 53.5992 528.807 52.9822 529.469 52.9822C530.109 52.9822 530.635 53.5992 530.635 54.2162C530.635 54.8789 530.132 55.473 529.469 55.473C528.807 55.473 528.281 54.8789 528.281 54.2162Z" fill="#B19A89"/>
<path d="M596.972 39.2938C596.972 39.2024 597.04 39.1339 597.132 39.1339H602.25C602.365 39.1339 602.41 39.2024 602.41 39.2938C602.41 39.7737 600.834 39.271 600.834 40.4136C600.834 40.665 600.902 40.9163 600.971 41.1449L604.239 52.1367L606.935 41.6933C607.027 41.3734 607.049 41.0763 607.049 40.7564C607.049 39.5452 606.295 39.6595 605.404 39.4995C605.313 39.4767 605.221 39.4081 605.221 39.2938C605.221 39.2024 605.267 39.1339 605.381 39.1339H609.563C609.677 39.1339 609.723 39.2024 609.723 39.2938C609.723 39.4081 609.632 39.4767 609.54 39.4995C608.443 39.7737 608.009 39.8651 607.712 41.0534L604.056 54.9475C604.01 55.176 603.804 55.3359 603.576 55.3359C603.347 55.3359 603.142 55.176 603.073 54.9703L598.868 41.0534C598.663 40.3907 598.274 39.7509 597.566 39.5909C597.383 39.5681 596.972 39.5452 596.972 39.2938ZM610.509 54.5818C610.829 54.3076 610.852 53.782 610.852 53.3935V41.0763C610.852 40.7107 610.852 40.1165 610.509 39.888C610.258 39.728 609.207 39.5681 609.207 39.2938C609.207 39.2024 609.252 39.1339 609.344 39.1339H614.257C614.348 39.1339 614.394 39.2024 614.394 39.2938C614.394 39.5452 613.366 39.6823 613.114 39.888C612.771 40.1622 612.749 40.6878 612.749 41.0763V53.3935C612.749 53.7592 612.749 54.3533 613.114 54.5818C613.366 54.7646 614.394 54.8789 614.394 55.176C614.394 55.2674 614.348 55.3359 614.257 55.3359H609.344C609.252 55.3359 609.184 55.2674 609.184 55.176C609.184 54.9475 610.235 54.8103 610.509 54.5818ZM616.044 54.5818C616.364 54.3076 616.386 53.782 616.386 53.3935V41.0763C616.386 40.7107 616.386 40.1165 616.044 39.888C615.792 39.728 614.741 39.5681 614.741 39.2938C614.741 39.2024 614.787 39.1339 614.878 39.1339H619.791C619.883 39.1339 619.928 39.2024 619.928 39.2938C619.928 39.5452 618.9 39.6823 618.649 39.888C618.306 40.1622 618.283 40.6878 618.283 41.0763V53.3935C618.283 53.7592 618.283 54.3533 618.649 54.5818C618.9 54.7646 619.928 54.8789 619.928 55.176C619.928 55.2674 619.883 55.3359 619.791 55.3359H614.878C614.787 55.3359 614.718 55.2674 614.718 55.176C614.718 54.9475 615.769 54.8103 616.044 54.5818ZM621.578 54.5818C621.898 54.3076 621.921 53.782 621.921 53.3935V41.0763C621.921 40.7107 621.921 40.1165 621.578 39.888C621.327 39.728 620.276 39.5681 620.276 39.2938C620.276 39.2024 620.321 39.1339 620.413 39.1339H625.326C625.417 39.1339 625.463 39.2024 625.463 39.2938C625.463 39.5452 624.435 39.6823 624.183 39.888C623.84 40.1622 623.818 40.6878 623.818 41.0763V53.3935C623.818 53.7592 623.818 54.3533 624.183 54.5818C624.435 54.7646 625.463 54.8789 625.463 55.176C625.463 55.2674 625.417 55.3359 625.326 55.3359H620.413C620.321 55.3359 620.253 55.2674 620.253 55.176C620.253 54.9475 621.304 54.8103 621.578 54.5818ZM626.815 54.2162C626.815 53.5992 627.341 52.9822 628.004 52.9822C628.644 52.9822 629.169 53.5992 629.169 54.2162C629.169 54.8789 628.666 55.473 628.004 55.473C627.341 55.473 626.815 54.8789 626.815 54.2162Z" fill="#B19A89"/>
<path d="M698.463 54.5818C698.782 54.3076 698.805 53.782 698.805 53.3935V41.0763C698.805 40.7107 698.805 40.1165 698.463 39.888C698.211 39.728 697.16 39.5681 697.16 39.2938C697.16 39.2024 697.206 39.1339 697.297 39.1339H702.21C702.302 39.1339 702.347 39.2024 702.347 39.2938C702.347 39.5452 701.319 39.6823 701.068 39.888C700.725 40.1622 700.702 40.6878 700.702 41.0763V53.3935C700.702 53.7592 700.702 54.3533 701.068 54.5818C701.319 54.7646 702.347 54.8789 702.347 55.176C702.347 55.2674 702.302 55.3359 702.21 55.3359H697.297C697.206 55.3359 697.137 55.2674 697.137 55.176C697.137 54.9475 698.188 54.8103 698.463 54.5818ZM702.146 55.176C702.146 55.0617 702.237 54.9932 702.329 54.9703C703.403 54.7418 703.951 54.6961 704.477 53.6449L707.356 47.4749L704.317 40.962C703.86 39.9794 703.54 39.8423 702.534 39.5224C702.443 39.4767 702.352 39.4081 702.352 39.2938C702.352 39.2024 702.42 39.111 702.512 39.111H707.539C707.653 39.111 707.699 39.1796 707.699 39.2938C707.699 39.7052 706.328 39.3167 706.328 40.2536C706.328 40.8935 708.293 44.824 708.613 45.5324C709.024 44.6412 710.99 40.8706 710.99 40.2308C710.99 39.3395 709.299 39.6823 709.299 39.2938C709.299 39.1796 709.344 39.111 709.436 39.111H713.686C713.778 39.111 713.823 39.1796 713.823 39.2938C713.823 39.5224 713.138 39.5681 712.932 39.6138C712.109 39.8194 711.835 40.2079 711.47 40.962L708.979 46.2866L712.269 53.5078C712.749 54.5133 713.046 54.6504 714.075 54.9703C714.166 54.9932 714.235 55.0617 714.235 55.176C714.235 55.2674 714.189 55.3359 714.098 55.3359H709.07C708.979 55.3359 708.933 55.2674 708.933 55.176C708.933 54.7646 710.304 55.1074 710.304 54.2162C710.304 53.9191 710.19 53.6677 710.076 53.4164L707.699 48.229L705.391 53.3021C705.277 53.5535 705.208 53.8277 705.208 54.0791C705.208 55.2674 706.648 54.6047 706.648 55.1531C706.648 55.2674 706.602 55.3359 706.488 55.3359H702.306C702.192 55.3359 702.146 55.2674 702.146 55.176ZM714.88 54.2162C714.88 53.5992 715.406 52.9822 716.069 52.9822C716.709 52.9822 717.234 53.5992 717.234 54.2162C717.234 54.8789 716.731 55.473 716.069 55.473C715.406 55.473 714.88 54.8789 714.88 54.2162Z" fill="#B19A89"/>
<path d="M784.612 55.176C784.612 55.0617 784.703 54.9932 784.794 54.9703C785.868 54.7418 786.417 54.6961 786.942 53.6449L789.822 47.4749L786.782 40.962C786.325 39.9794 786.005 39.8423 785 39.5224C784.909 39.4767 784.817 39.4081 784.817 39.2938C784.817 39.2024 784.886 39.111 784.977 39.111H790.005C790.119 39.111 790.165 39.1796 790.165 39.2938C790.165 39.7052 788.793 39.3167 788.793 40.2536C788.793 40.8935 790.759 44.824 791.079 45.5324C791.49 44.6412 793.455 40.8706 793.455 40.2308C793.455 39.3395 791.764 39.6823 791.764 39.2938C791.764 39.1796 791.81 39.111 791.901 39.111H796.152C796.243 39.111 796.289 39.1796 796.289 39.2938C796.289 39.5224 795.603 39.5681 795.398 39.6138C794.575 39.8194 794.301 40.2079 793.935 40.962L791.444 46.2866L794.735 53.5078C795.215 54.5133 795.512 54.6504 796.54 54.9703C796.632 54.9932 796.7 55.0617 796.7 55.176C796.7 55.2674 796.655 55.3359 796.563 55.3359H791.536C791.444 55.3359 791.399 55.2674 791.399 55.176C791.399 54.7646 792.77 55.1074 792.77 54.2162C792.77 53.9191 792.655 53.6677 792.541 53.4164L790.165 48.229L787.856 53.3021C787.742 53.5535 787.674 53.8277 787.674 54.0791C787.674 55.2674 789.113 54.6047 789.113 55.1531C789.113 55.2674 789.068 55.3359 788.953 55.3359H784.771C784.657 55.3359 784.612 55.2674 784.612 55.176ZM797.346 54.2162C797.346 53.5992 797.872 52.9822 798.534 52.9822C799.174 52.9822 799.7 53.5992 799.7 54.2162C799.7 54.8789 799.197 55.473 798.534 55.473C797.872 55.473 797.346 54.8789 797.346 54.2162Z" fill="#B19A89"/>
<line x1="5.83968e-08" y1="15.668" x2="803" y2="15.668" stroke="#B19A89" stroke-opacity="0.55" stroke-width="1.33596" stroke-dasharray="2.67 2.67"/>
<path d="M1.46253 54.5818C1.78245 54.3076 1.80531 53.782 1.80531 53.3935V41.0763C1.80531 40.7107 1.80531 40.1165 1.46253 39.888C1.21116 39.728 0.159964 39.5681 0.159964 39.2938C0.159964 39.2024 0.205668 39.1339 0.297076 39.1339H5.21025C5.30166 39.1339 5.34736 39.2024 5.34736 39.2938C5.34736 39.5452 4.31903 39.6823 4.06765 39.888C3.72487 40.1622 3.70202 40.6878 3.70202 41.0763V53.3935C3.70202 53.7592 3.70202 54.3533 4.06765 54.5818C4.31903 54.7646 5.34736 54.8789 5.34736 55.176C5.34736 55.2674 5.30166 55.3359 5.21025 55.3359H0.297076C0.205668 55.3359 0.137112 55.2674 0.137112 55.176C0.137112 54.9475 1.1883 54.8103 1.46253 54.5818ZM6.69992 54.2162C6.69992 53.5992 7.22551 52.9822 7.88822 52.9822C8.52808 52.9822 9.05367 53.5992 9.05367 54.2162C9.05367 54.8789 8.55093 55.473 7.88822 55.473C7.22551 55.473 6.69992 54.8789 6.69992 54.2162Z" fill="#B19A89"/>
</svg>
